<svg xmlns="http://www.w3.org/2000/svg" viewBox="0 0 488 486" fill="none">
  <!-- Right shape -->
  <path d="M402.562 66.126H162.371l50.064 87.336a131.5 131.5 0 0 1 53.852-15.688c56.5 0 102.3 46.88 102.3 104.709 0 39.377-18.79 74.519-52.635 91.539l86.61 151.048c46.699 0 84.547-47.809 84.547-86.563V152.672c0-47.8-37.848-86.546-84.547-86.546Z" fill="#F97316"/>
  <!-- Left shape -->
  <path d="M266.287 347.192c-56.5 0-102.302-46.88-102.302-104.709 0-24.634 10.243-47.284 22.242-65.148L84.548 0C37.854 0 0 38.753 0 86.546v245.836C0 380.187 37.854 418.939 84.548 418.939h240.193l-41.928-73.126a106.3 106.3 0 0 1-16.526 1.379Z" fill="#F97316"/>
  <!-- Center ring (even-odd) -->
  <path fill-rule="evenodd" d="M265.691 267.402c-13.524 0-24.487-11.157-24.487-25.063 0-13.843 10.963-25.065 24.487-25.065 13.525 0 24.489 11.222 24.489 25.065 0 13.843-10.964 25.063-24.489 25.063Zm0-103.391c-42.263 0-76.524 35.259-76.524 78.328 0 43.257 34.261 78.327 76.524 78.327 42.266 0 76.527-35.07 76.527-78.327 0-43.259-34.261-78.328-76.527-78.328Z" fill="#F97316"/>
</svg>
